<?xml version="1.0" encoding="UTF-8" standalone="no"?>
<svg
   width="24"
   height="24"
   viewBox="0 0 24 24"
   fill="currentColor"
   class="icon icon-tabler icons-tabler-filled icon-tabler-video"
   version="1.1"
   id="svg8"
   sodipodi:docname="camera-cross.svg"
   inkscape:version="1.1.2 (0a00cf5339, 2022-02-04)"
   xmlns:inkscape="http://www.inkscape.org/namespaces/inkscape"
   xmlns:sodipodi="http://sodipodi.sourceforge.net/DTD/sodipodi-0.dtd"
   xmlns="http://www.w3.org/2000/svg"
   xmlns:svg="http://www.w3.org/2000/svg">
  <defs
     id="defs12" />
  <sodipodi:namedview
     id="namedview10"
     pagecolor="#ffffff"
     bordercolor="#666666"
     borderopacity="1.0"
     inkscape:pageshadow="2"
     inkscape:pageopacity="0.0"
     inkscape:pagecheckerboard="0"
     showgrid="false"
     inkscape:zoom="32.583333"
     inkscape:cx="12"
     inkscape:cy="11.984655"
     inkscape:window-width="1848"
     inkscape:window-height="1016"
     inkscape:window-x="0"
     inkscape:window-y="0"
     inkscape:window-maximized="1"
     inkscape:current-layer="svg8" />
  <path
     stroke="none"
     d="M0 0h24v24H0z"
     fill="none"
     id="path2" />
  <path
     d="M20.117 7.625a1 1 0 0 0 -.564 .1l-4.553 2.275v4l4.553 2.275a1 1 0 0 0 1.447 -.892v-6.766a1 1 0 0 0 -.883 -.992z"
     id="path4"
     style="fill:#ffffff;fill-opacity:1" />
  <path
     d="M5 5c-1.645 0 -3 1.355 -3 3v8c0 1.645 1.355 3 3 3h8c1.645 0 3 -1.355 3 -3v-8c0 -1.645 -1.355 -3 -3 -3z"
     id="path6"
     style="fill:#ffffff;fill-opacity:1" />
  <rect
     style="fill:#ffffff;fill-opacity:1;stroke-width:2.5;stroke-linecap:round;stroke-linejoin:round;stroke-miterlimit:1.1547"
     id="rect953"
     width="25.928709"
     height="4.1823049"
     x="2.4143066"
     y="0.42975447"
     ry="2.0911524"
     transform="rotate(35.293035)" />
</svg>
